<svg xmlns="http://www.w3.org/2000/svg" viewBox="0 0 338 109"><g data-name="AI Logo"><path fill="#d9000d" d="m119.28 64.3 29.37-52.06-14.18-.1-37.6 30.16L71.3 60.69s-9.43 9.8-45.94 7.83c0 0 11.13 1.63 21.08 3.95a67.63 67.63 0 0 1 14.94 5.58 97.66 97.66 0 0 1 5.85 3.68c3.22 2.22 9.67 8.66 13.8 10.88 5.32 2.87 14.47 5.51 28.48 2.7 0 0-17.2.4-24.55-5.92-1.35-1.18-5.82-6.02 1.1-9.89 2.5-1.58 6.3-2.54 13.27-3.69 0 0 19.61-2 24.9-.97a14.93 14.93 0 0 1-4.94-3.38c-2.64-2.64 0-7.15 0-7.15" data-name="Path 63"/><path fill="#ef7000" d="M113.86 42.9c1.67-.2 8.49-1.38 9.21-1.53 3.43-.67 7.15-1.48 10.36-2.16l.38-.67c-4.75.36-10.45.8-14.63 1.16-2.78.23-4.89.43-5.59.55-.9.14-1.8.3-2.67.47a81.8 81.8 0 0 0-8.91 2.26 73.25 73.25 0 0 0 11.85-.08" data-name="Path 64"/><path fill="#ef7000" d="M113.48 47.92c1.67.23 8.57.85 9.29.9 1.65.11 3.37.22 5.07.3l.7-1.25c-3.2-.6-6.45-1.2-9.09-1.67-2.76-.5-4.84-.85-5.54-.91-.91-.1-1.8-.18-2.7-.24a80.14 80.14 0 0 0-9.2-.13 72.85 72.85 0 0 0 11.48 3" data-name="Path 65"/><path fill="#ef7000" d="M111.81 52.66c1.55.66 8.05 3.04 8.75 3.28l2.9.97.79-1.41c-2.23-1.07-4.38-2.1-6.22-2.96-2.53-1.19-4.46-2.06-5.12-2.32l-2.55-.92a84.42 84.42 0 0 0-8.85-2.51 71.06 71.06 0 0 0 10.3 5.87" data-name="Path 66"/><path fill="#ef7000" d="M108.97 56.8c1.33 1.05 7 5.03 7.6 5.44.93.61 1.86 1.25 2.82 1.87l.75-1.33.05-.08a581.74 581.74 0 0 0-5.19-4.4c-2.13-1.8-3.76-3.15-4.33-3.55-.74-.54-1.5-1.06-2.23-1.56a81.98 81.98 0 0 0-7.9-4.71 72.58 72.58 0 0 0 8.43 8.32" data-name="Path 67"/><path fill="#ef7000" d="M105.16 60.08c1.01 1.35 5.45 6.67 5.93 7.21 2.1 2.4 4.43 4.99 6.49 7.28.3-.02.6-.02.9-.02-2.59-3.8-5.61-8.2-7.88-11.46-1.6-2.3-2.83-4.02-3.28-4.56-.57-.72-1.16-1.4-1.74-2.08a82.66 82.66 0 0 0-6.41-6.6 72.47 72.47 0 0 0 5.99 10.23" data-name="Path 68"/><path fill="#ef7000" d="M100.62 62.25c.63 1.57 3.55 7.85 3.87 8.5.7 1.44 1.46 2.94 2.2 4.4l1.45-.1c-1.06-3.01-2.15-6.03-3.04-8.48-.95-2.63-1.68-4.62-1.97-5.26-.37-.84-.76-1.65-1.16-2.45a78.37 78.37 0 0 0-4.48-8.04 73.47 73.47 0 0 0 3.13 11.43" data-name="Path 69"/><path fill="#ef7000" d="M95.68 63.19c.21 1.67 1.39 8.48 1.54 9.2.23 1.2.48 2.42.74 3.65l.12-.02h.03l.05-.02h.02l.16-.02h.06l.02-.01.02-.01h.05l.02-.02h.05l.02-.01h.02l.07-.02H98.76l.04-.01h.03l.1-.02H99l.15-.04h.02l.15-.03.16-.02c-.2-2.6-.41-5.14-.6-7.28-.23-2.79-.43-4.9-.54-5.6-.15-.9-.33-1.79-.48-2.66a79.8 79.8 0 0 0-2.25-8.93 71.79 71.79 0 0 0 .06 11.86" data-name="Path 70"/><path fill="#ef7000" d="M90.67 62.8c-.24 1.68-.86 8.57-.9 9.3-.14 1.9-.25 3.9-.35 5.88.42-.14.88-.28 1.35-.41.6-3.12 1.17-6.24 1.62-8.8.5-2.75.85-4.84.92-5.54.08-.91.16-1.81.22-2.7a80.1 80.1 0 0 0 .14-9.2 72.39 72.39 0 0 0-3 11.47" data-name="Path 71"/><path fill="#ef7000" d="M85.93 61.13c-.66 1.56-3.04 8.05-3.27 8.74-1.81 5.3-3.7 11.4-4.96 14.95 2.2-4.57 5.92-12.29 8.35-17.47 1.2-2.54 2.07-4.46 2.32-5.11.32-.86.63-1.71.92-2.55a77.47 77.47 0 0 0 2.5-8.86 73.03 73.03 0 0 0-5.86 10.3" data-name="Path 72"/><path fill="#ef7000" d="M81.78 58.3a349.1 349.1 0 0 0-5.44 7.59c-3.1 4.65-6.51 10.05-8.65 13.15C71 75.2 76.6 68.7 80.28 64.34a109.2 109.2 0 0 0 3.56-4.35c.54-.75 1.05-1.5 1.56-2.22a82.8 82.8 0 0 0 4.71-7.9 72.54 72.54 0 0 0-8.33 8.43" data-name="Path 73"/><path fill="#ef7000" d="M69.33 62.14c-3.64 3.24-7.37 6.67-9.8 8.74 4.2-2.86 11.26-7.69 15.97-10.95 2.3-1.6 4.01-2.83 4.56-3.27l2.08-1.75a84.25 84.25 0 0 0 6.6-6.41c-.4.15-.86.36-1.36.62L71.3 60.69l-.01.02h-.02v.02h-.02l-.01.01h-.01l-.01.02-.01.01-.02.01v.02h-.02l-.04.05h-.01l-.06.06-.01.01a15.4 15.4 0 0 1-1.71 1.22" data-name="Path 74"/><path fill="#ef7000" d="M110.57 33.16c1.34-1.03 6.59-5.55 7.12-6.04 4.15-3.74 8.77-8.16 11.59-10.66l-1.76 1.24-3.38 2.72-23.44 18.8a75.16 75.16 0 0 0 9.87-6.06" data-name="Path 75"/><path fill="#ef7000" d="M112.93 37.95a314.3 314.3 0 0 0 8.49-3.85c5.03-2.47 10.68-5.45 14.08-7.07-4.79 1.67-12.88 4.5-18.25 6.45-2.63.95-4.62 1.7-5.26 1.98-.84.37-1.65.77-2.45 1.15a83.67 83.67 0 0 0-8.04 4.48 71.28 71.28 0 0 0 11.43-3.14" data-name="Path 76"/><path fill="#d9000d" d="m144.75 70.21-.79 1.42h8.31s1.55.07 2.85-2.57l2.77-5.03h2.05l1.03-1.98h-24.13l-1.25 2.04h2.13l-3.77 7.42s-1.31 2.95 2.2 2.95l9.21-.01s.93-.17.48 1.16l-.3.73h7.74l.84-2.05s.93-1.4-1.85-1.4h-9.53s-1.16-.1-.57-1.42l3.88-7.44h3.41l-3.04 5.46s-.21.78-1.67.73" data-name="Path 77"/><path fill="#d9000d" d="M176.74 68.7c1.1-.2 2.1-1.68 2.1-1.68L180.2 64c.7-1.78-2.04-2-2.04-2h-11.89a4.67 4.67 0 0 0-3.56 1.32l-1.46 2.4H169l.74-1.15s.3-.52.76-.47h1.46s.77.03.1 1.08l-.72 1.24a2.03 2.03 0 0 1-1.72.94l-3.18.02-.96 1.8h2c2.65-.16 1.56 1.38 1.56 1.38l-.71 1.4c-.46 1.18-2.02.95-2.02.95-1.63 0-1.04-.8-1.04-.8l.59-1.06-7.71.01-1 1.9a1.1 1.1 0 0 0 1.05 1.7h14.36a3.1 3.1 0 0 0 2.66-1.2l1.52-2.6c.84-1.41 0-2.15 0-2.15Z" data-name="Path 78"/><path fill="#d9000d" d="M194.83 62.07h-11.51l-1 1.88h1.63l-1.75 3.15a1.24 1.24 0 0 1-.85.26h-2l-.96 1.81h1.46c.99 0 1.05.16.92.48l-2.9 5.33h7.81l5.93-11.03h2.06Z" data-name="Path 79"/><path fill="#d9000d" d="M210.75 62.07h-11.5l-1.02 1.88h1.63l-1.8 2.69a2.54 2.54 0 0 1-1.91.72h-2.56l-.95 1.81h.8c1.02-.05.84.3.52.85l-1.12 2.03c-.34.53-.74 2.57 1.18 2.69l9.1-.01.8-1.72L201 73c-1 0-.5-.82-.5-.82l1.85-2.94a3.05 3.05 0 0 0 2.8-1.52l2.38-3.77h2.04Z" data-name="Path 80"/><path fill="#d9000d" d="M237.16 58.97h-7.06l-1.24 1.91h7.06Z" data-name="Path 81"/><path fill="#d9000d" d="m290.16 65.23-2.21 4.17c-.26.35-.68.61-2.17.61h-7.75s-1.34-.3-.82-1.5c0 0 .1-.67 1.12-.67h6.7a2.3 2.3 0 0 0 1.9-1.37l1.34-2.48h1.67s.95.05.22 1.24m-13.73-3.18-1 1.94h3.67c.91 0 1.17.5.8 1.1l-.25.52a1.86 1.86 0 0 1-1.49.53l-6.76-.03a1.68 1.68 0 0 0-1.68 1.06l-.94 1.9s-1.24 2.63 2.93 2.85h13.23s1.33-.03 1.28.7l-1.25 2.36h7.54l5.67-10.33a1.6 1.6 0 0 1 1.29-.66h2.2s.94.05.09 1.46l-5.07 9.53h7.54l5.68-10.36a1.48 1.48 0 0 1 1.3-.63h1.07l1.17-1.94Z" data-name="Path 82"/><path fill="#d9000d" d="m235.64 64.14 1.21-2.12H218l-1.27 2.18h9.02s1.15-.1.8.47l-.34.53h-8.9a2.08 2.08 0 0 0-1.6.8l-1.51 2.66c-.33.69-.1 1.5 2.43 1.5h4.98s1.67-.14 1.1 1.06l-.74 1.3s-.37.8-1.06.74h-1.34s-.83.15-.41-.78l.59-1.16h-7.02l-1.26 2.2s-.95 1.02.22 1.35l-.4.75s-.49 1.05.35 1.11h4.4a1.9 1.9 0 0 0 1.26-1.11l.32-.64h9.4a2.55 2.55 0 0 0 2.5-1.78l1.37-2.51s1.3-2.25-2.67-2.5h-5.19s-1.26.2-.68-.75a1.65 1.65 0 0 1 1.42-.57h7.85v-.01a1.69 1.69 0 0 0 1.48-.75l1.14-1.97Z" data-name="Path 83"/><path fill="#d9000d" d="m261.59 61.15-.55.88-13.05-.05a2.88 2.88 0 0 1 2.31-1.21h9.64c1.73 0 1.65.38 1.65.38m9.68.87-2.52.03 1.05-1.73s.14-1.37-2.9-1.3h-21.52a5.95 5.95 0 0 0-4.72 3.01h-1.89l-1.14 2.06h1.95l-6.21 10.89h7.54l6.03-10.78h12.16s1.15-.1.78.47l-.33.53h-8.89a3.46 3.46 0 0 0-2.51 1.99l-.46.83s-.95 2 2.3 2.14h4.98s1.68-.15 1.1 1.05l-.73 1.31s-.36.79-1.05.73h-.84s-.84.16-.42-.78l.58-1.15h-7.36l-1.26 2.2s-.4 1.4 1.64 1.46h13.72a2.56 2.56 0 0 0 2.52-1.78l1.36-2.52s1.3-2.24-2.67-2.5h-5.2s-1.25.2-.66-.74a1.63 1.63 0 0 1 1.4-.58h7.85a1.76 1.76 0 0 0 1.53-.82l1.1-1.9h2.4Z" data-name="Path 84"/><path fill="#d9000d" d="M289.97 92.17h-2.88l4.81-5.25Zm-5.33-7.57-11 12.6h8.8l1.7-1.87h4.63l-.68 1.89h9.36l3.72-12.62Z" data-name="Path 85"/><path fill="#d9000d" d="m268.32 84.6-7.25 12.6h10.33l7.1-12.6Z" data-name="Path 86"/><path fill="#d9000d" d="m200.74 84.62-7.2 12.57h10.33l7.03-12.59Z" data-name="Path 87"/><path fill="#d9000d" d="m228.75 84.6-2.65 4.84-2.63-4.84h-9.31l-6.85 12.6h8.51l2.99-5.15 3 5.15h8.6l7.22-12.6Z" data-name="Path 88"/><path fill="#d9000d" d="m251.54 89.72-1 2.3c-.97 2.52-2.52 2.39-2.52 2.39l-1.53-.01 2.93-6 1.69.04c.98.23.43 1.29.43 1.29m8.63-5.1-18.95-.03-7.14 12.59h20.79s3.21.28 4.9-3.49l3.34-6.28s2.24-2.8-2.93-2.8" data-name="Path 89"/><path fill="#d9000d" d="M136.75 92.16h-2.87l4.82-5.24Zm-5.44-7.57-10.82 12.6h8.81l1.65-1.86h4.61l-.67 1.87h9.32l3.8-12.61Z" data-name="Path 90"/><path fill="#d9000d" d="m153.2 84.64-7.12 12.55h10.33l7.07-12.55Z" data-name="Path 91"/><path fill="#d9000d" d="m177.35 89.54-.57.9s-.52.9-3.3.51l1.26-2.56h2.1a.72.72 0 0 1 .51 1.15m9.14-4.92h-19.55l-7.13 12.58h10.27l2.35-4.43 2.9 4.43h10.26l-3.11-3.55a3.63 3.63 0 0 0 3.21-1.79l2.23-4.13c1.2-2.73-1.43-3.1-1.43-3.1" data-name="Path 92"/></g></svg>