<svg xmlns="http://www.w3.org/2000/svg" viewBox="0 0 113 23"><path fill="#001B94" fill-rule="evenodd" d="M108.72 7.98a.94.94 0 1 1-1.87 0 .94.94 0 0 1 1.87 0Zm-2.8-2.82a.94.94 0 1 1-1.88 0 .94.94 0 0 1 1.87 0Zm2.8 0a.94.94 0 1 1-1.87 0 .94.94 0 0 1 1.87 0Zm-5.61 0a.94.94 0 1 1-1.88 0 .94.94 0 0 1 1.88 0Zm7.21-3A.94.94 0 0 1 109 3.48a.94.94 0 0 1 0-1.34.93.93 0 0 1 1.32 0Zm2.34-1.89c.37.37.37.97 0 1.33a.94.94 0 0 1-1.32 0 .94.94 0 0 1 0-1.33.93.93 0 0 1 1.32 0Zm-12.83 4.9a.94.94 0 1 1-1.88 0 .94.94 0 0 1 1.88 0Zm-2.8 0a.94.94 0 1 1-1.88 0 .94.94 0 0 1 1.87 0Zm10.76 4.69a.94.94 0 1 1 0 1.87.94.94 0 0 1 0-1.87Zm-10.3 9.38a.94.94 0 1 1-1.88 0 .94.94 0 0 1 1.88 0Zm-2.8-2.81a.94.94 0 1 1-1.88 0 .94.94 0 0 1 1.87 0Zm2.8 0a.94.94 0 1 1-1.88 0 .94.94 0 0 1 1.88 0Zm-5.62 0a.94.94 0 1 1-1.87 0 .94.94 0 0 1 1.87 0Zm4.68 4.7a.94.94 0 1 1 0 1.87.94.94 0 0 1 0-1.88Zm11.24-8.46a.94.94 0 1 1 0 1.88.94.94 0 0 1 0-1.88Zm0 3.29a.94.94 0 1 1 0 1.87.94.94 0 0 1 0-1.87Zm-6.09-3.76a.94.94 0 1 1-1.87 0 .94.94 0 0 1 1.87 0Zm1.6-3c.37.36.37.95 0 1.32a.93.93 0 0 1-1.32 0 .94.94 0 0 1 0-1.33.93.93 0 0 1 1.32 0Zm2.34-1.88c.37.36.37.96 0 1.32a.93.93 0 0 1-1.32 0 .94.94 0 0 1 0-1.32.93.93 0 0 1 1.32 0Zm-6.08 6.1c.36.36.36.96 0 1.33a.94.94 0 0 1-1.33 0 .94.94 0 0 1 0-1.33.93.93 0 0 1 1.33 0Zm-37.02 6.8A11.47 11.47 0 0 1 54.87 23c-3.16 0-5.9-1.1-8.2-3.32a10.98 10.98 0 0 1-3.42-8.15c0-3.19 1.14-5.91 3.43-8.15A11.31 11.31 0 0 1 54.87 0c1.86 0 3.5.3 4.92.93 1.41.6 2.84 1.62 4.28 3.05l.11.12-2.2 2.38-.13-.1A22.16 22.16 0 0 0 58.6 4a7.88 7.88 0 0 0-3.73-.9c-2.35 0-4.3.83-5.87 2.47a8.32 8.32 0 0 0-2.34 5.95c0 2.3.78 4.28 2.34 5.92a7.75 7.75 0 0 0 5.87 2.47c2.17 0 4-.63 5.5-1.88a6.36 6.36 0 0 0 2.39-4.98H55.1V9.97h11.1V12c0 3.4-1.22 6.15-3.66 8.22Zm19.1.47a7.87 7.87 0 0 1-5.63 2.25 7.83 7.83 0 0 1-5.6-2.25 7.6 7.6 0 0 1-2.36-5.73 7.6 7.6 0 0 1 2.32-5.7A7.8 7.8 0 0 1 76.01 7c2.17 0 4.04.76 5.6 2.28a7.5 7.5 0 0 1 2.39 5.7c0 2.3-.78 4.21-2.35 5.72Zm-2.23-9.35a4.5 4.5 0 0 0-3.4-1.4c-1.4 0-2.55.47-3.44 1.4-.86.9-1.3 2.1-1.3 3.62 0 1.5.45 2.7 1.33 3.63a4.5 4.5 0 0 0 3.4 1.4 4.5 4.5 0 0 0 3.41-1.4 5.02 5.02 0 0 0 1.34-3.63c0-1.5-.45-2.7-1.34-3.62Zm-38.5-5.95c-.32.36-.78.53-1.36.53-.54 0-1-.18-1.35-.53a1.94 1.94 0 0 1-.5-1.32 1.77 1.77 0 0 1 1.84-1.81c.56 0 1 .19 1.34.56.34.35.52.77.52 1.25 0 .52-.16.97-.49 1.32Zm-2.92 17.23V7.3h3.12v15.32H38Zm-4.32-2a7.3 7.3 0 0 1-5.58 2.32c-2.4 0-4.35-.83-5.84-2.48a8.5 8.5 0 0 1-2.1-5.88c0-2.12.73-3.91 2.17-5.37a7.1 7.1 0 0 1 5.23-2.22c1.6 0 3.05.35 4.34 1.05l.09.05v3.33l-.27-.19a8 8 0 0 0-1.82-.89c-.68-.27-1.3-.4-1.87-.4-1.45 0-2.6.46-3.46 1.37-.87.9-1.31 2.1-1.31 3.62 0 1.5.45 2.7 1.34 3.66.9.93 2.07 1.4 3.5 1.4 1.33 0 2.43-.51 3.3-1.52.89-1 1.35-2.48 1.35-4.45V.38h3.12v14.14c0 2.49-.73 4.53-2.2 6.1Zm-18.48 2V13.7c0-1.09-.35-1.98-1.03-2.68a3.2 3.2 0 0 0-2.46-1.08c-.93 0-1.75.36-2.46 1.08a3.68 3.68 0 0 0-1.02 2.68v8.92H5.13V13.7a6.35 6.35 0 0 1 6.57-6.72 6.42 6.42 0 0 1 6.6 6.72v8.92H15.2ZM0 22.62V.38h3.28v22.24H0Z"/></svg>